<?xml version="1.0" encoding="utf-8"?>
<!-- Generator: Adobe Illustrator 25.1.0, SVG Export Plug-In . SVG Version: 6.00 Build 0)  -->
<svg version="1.1" id="Lager_1" xmlns="http://www.w3.org/2000/svg" xmlns:xlink="http://www.w3.org/1999/xlink" x="0px" y="0px"
	 viewBox="0 0 100 100" style="enable-background:new 0 0 100 100;" xml:space="preserve">
<style type="text/css">
	.st0{fill:#D74848;}
	.st1{fill:#D30174;}
	.st2{fill:#7F0DC7;}
	.st3{fill:#E88B2A;}
</style>
<g>
	<g id="XMLID_1_">
		<g>
			<polygon class="st0" points="87.8,69.4 87.8,78.5 83.2,78.5 83.2,83 78.5,83 78.5,87.8 51.4,87.8 51.4,83.1 55.9,83.1 55.9,78.7 
				74.1,78.7 79.1,78.7 79.1,73.9 79.1,69.4 			"/>
			<polygon class="st1" points="87.8,42.3 87.8,69.4 79.1,69.4 79.1,46.8 83.2,46.8 83.2,42.3 			"/>
			<polygon class="st2" points="87.8,21.9 87.8,42.3 83.2,42.3 83.2,46.8 79.1,46.8 79.1,28.5 79.1,23.7 74.1,23.7 29.2,23.7 
				24.1,23.7 24.1,28.5 24.1,46.8 19.7,46.8 19.7,42.3 12.2,42.3 12.2,21.9 17.5,21.9 17.5,17.3 22,17.3 22,12.2 78.6,12.2 
				78.6,17.3 83.1,17.3 83.1,21.9 			"/>
			<rect x="74.1" y="73.9" class="st0" width="5" height="4.8"/>
			<rect x="74.1" y="23.7" class="st2" width="5" height="4.8"/>
			<rect x="65" y="28.5" class="st2" width="9.1" height="9.1"/>
			<rect x="60.5" y="51.3" class="st1" width="4.5" height="9"/>
			<rect x="60.5" y="42.3" class="st2" width="4.5" height="9"/>
			<rect x="42.4" y="60.4" class="st1" width="18" height="4.5"/>
			<rect x="42.4" y="37.6" class="st2" width="18" height="4.5"/>
			<polygon class="st3" points="55.9,78.7 55.9,83.1 51.4,83.1 51.4,87.8 22,87.8 22,83 17.5,83 17.5,78.5 12.2,78.5 12.2,60.3 
				24.1,60.3 24.1,73.9 24.1,78.7 29.2,78.7 			"/>
			<rect x="37.9" y="51.3" class="st1" width="4.5" height="9"/>
			<rect x="37.9" y="42.3" class="st2" width="4.5" height="9"/>
			<rect x="24.1" y="73.9" class="st3" width="5.1" height="4.8"/>
			<rect x="24.1" y="23.7" class="st2" width="5.1" height="4.8"/>
			<polygon class="st1" points="24.1,46.8 24.1,60.3 12.2,60.3 12.2,42.3 19.7,42.3 19.7,46.8 			"/>
		</g>
		<g>
		</g>
	</g>
</g>
</svg>
